<?xml version="1.0" encoding="UTF-8" standalone="no"?>
<!DOCTYPE svg PUBLIC "-//W3C//DTD SVG 1.1//EN" "http://www.w3.org/Graphics/SVG/1.1/DTD/svg11.dtd">
<svg width="100%" height="100%" viewBox="0 0 1920 1080" version="1.1" xmlns="http://www.w3.org/2000/svg" xmlns:xlink="http://www.w3.org/1999/xlink" xml:space="preserve" xmlns:serif="http://www.serif.com/" style="fill-rule:evenodd;clip-rule:evenodd;stroke-linejoin:round;stroke-miterlimit:2;">
    <rect x="-0.903" y="-2.56" width="1926.88" height="1093.75" style="fill:white;"/>
    <g transform="matrix(0.885475,0,0,0.885475,487.835,-4.09033)">
        <circle cx="154.309" cy="155.528" r="30.545" style="fill:rgb(98,98,101);"/>
    </g>
    <g transform="matrix(0.885475,0,0,0.885475,285.754,232.184)">
        <circle cx="345.997" cy="188.697" r="46.076" style="fill:rgb(1,255,52);"/>
    </g>
    <g transform="matrix(0.885475,0,0,0.885475,563.095,73.8904)">
        <circle cx="191.944" cy="410.856" r="16.303" style="fill:rgb(230,0,46);"/>
    </g>
    <g transform="matrix(0.885475,0,0,0.885475,359.298,160.719)">
        <circle cx="523.828" cy="400.572" r="28.62" style="fill:rgb(5,255,230);"/>
    </g>
    <g transform="matrix(0.885475,0,0,0.885475,241.664,473.967)">
        <circle cx="523.828" cy="400.572" r="28.62" style="fill:rgb(208,235,0);"/>
    </g>
    <g transform="matrix(0.854952,-0.230484,0.230484,0.854952,-242.994,556.423)">
        <circle cx="1684.66" cy="136.287" r="38.981" style="fill:rgb(5,255,230);"/>
    </g>
    <g transform="matrix(0.854952,-0.230484,0.230484,0.854952,-149.106,242.795)">
        <circle cx="1662.78" cy="774.888" r="27.641" style="fill:rgb(98,98,101);"/>
    </g>
    <g transform="matrix(0.854952,-0.230484,0.230484,0.854952,-529.652,490.622)">
        <circle cx="1734.93" cy="543.639" r="43.591" style="fill:rgb(230,0,46);"/>
    </g>
    <g transform="matrix(0.885475,0,0,0.885475,-431.242,-11.9609)">
        <circle cx="1722.27" cy="973.496" r="18.178" style="fill:rgb(208,235,0);"/>
    </g>
    <g transform="matrix(0.854952,-0.230484,0.230484,0.854952,-529.652,490.622)">
        <circle cx="1832.67" cy="752.143" r="42.504" style="fill:rgb(253,0,236);"/>
    </g>
    <g transform="matrix(0.885475,0,0,0.885475,348.873,-38.5759)">
        <circle cx="403.06" cy="621.208" r="21.695"/>
    </g>
    <g transform="matrix(0.885475,0,0,0.885475,454.044,17.3652)">
        <circle cx="143.946" cy="681.919" r="54.328" style="fill:rgb(253,0,236);"/>
    </g>
    <g transform="matrix(0.885475,0,0,0.885475,359.298,160.719)">
        <circle cx="596.638" cy="225.176" r="20.783"/>
    </g>
    <g transform="matrix(0.885475,0,0,0.885475,727.578,-258.772)">
        <circle cx="162.361" cy="967.523" r="35.86" style="fill:rgb(98,98,101);"/>
    </g>
    <g transform="matrix(0.854952,-0.230484,0.230484,0.854952,-67.4478,616.189)">
        <circle cx="1411.66" cy="151.827" r="25.022" style="fill:rgb(253,0,236);"/>
    </g>
    <g transform="matrix(-0.848555,0,0,-0.848555,2385.62,939.161)">
        <circle cx="1684.66" cy="136.287" r="38.981" style="fill:rgb(5,255,230);"/>
    </g>
    <g transform="matrix(0.885475,0,0,0.885475,598.631,-243.839)">
        <circle cx="523.828" cy="400.572" r="28.62" style="fill:rgb(208,235,0);"/>
    </g>
    <g transform="matrix(0.885475,0,0,0.885475,-74.2749,-729.767)">
        <circle cx="1722.27" cy="973.496" r="18.178" style="fill:rgb(208,235,0);"/>
    </g>
    <g transform="matrix(-0.848555,0,0,-0.848555,2742.58,221.355)">
        <circle cx="1684.66" cy="136.287" r="38.981" style="fill:rgb(5,255,230);"/>
    </g>
    <g transform="matrix(-0.819305,0.220874,-0.220874,-0.819305,2263.88,501.229)">
        <circle cx="1411.66" cy="151.827" r="25.022" style="fill:rgb(1,255,52);"/>
    </g>
    <g transform="matrix(0.854952,-0.230484,0.230484,0.854952,-271.912,619.244)">
        <circle cx="1858.26" cy="235.298" r="19.684" style="fill:rgb(1,255,52);"/>
    </g>
    <g transform="matrix(0.854952,-0.230484,0.230484,0.854952,-67.4478,616.189)">
        <circle cx="1437.93" cy="365.657" r="25.605" style="fill:rgb(11,2,0);"/>
    </g>
    <g transform="matrix(0.854952,-0.230484,0.230484,0.854952,-149.106,242.795)">
        <circle cx="1486.33" cy="688.13" r="20.652" style="fill:rgb(208,235,0);"/>
    </g>
    <g transform="matrix(0.885475,0,0,0.885475,348.873,-38.5759)">
        <circle cx="512.142" cy="828.901" r="27.505" style="fill:rgb(230,0,46);"/>
    </g>
    <g transform="matrix(0.885475,0,0,0.885475,359.298,160.719)">
        <circle cx="601.48" cy="67.656" r="16.64" style="fill:rgb(5,255,230);"/>
    </g>
    <g transform="matrix(0.885475,0,0,0.885475,194.624,218.064)">
        <circle cx="893.225" cy="67.547" r="16.603" style="fill:rgb(230,0,46);"/>
    </g>
    <g transform="matrix(0.854952,-0.230484,0.230484,0.854952,118.48,453.621)">
        <circle cx="1136.47" cy="117.849" r="35.356" style="fill:rgb(208,235,0);"/>
    </g>
    <g transform="matrix(0.854952,-0.230484,0.230484,0.854952,-149.106,242.795)">
        <circle cx="1533.29" cy="883.446" r="37.91" style="fill:rgb(5,255,230);"/>
    </g>
    <g transform="matrix(0.885475,0,0,0.885475,1261.69,-90.2247)">
        <circle cx="345.997" cy="188.697" r="46.076" style="fill:rgb(1,255,52);"/>
    </g>
    <g transform="matrix(0.885475,0,0,0.885475,1502.6,-229.231)">
        <circle cx="191.944" cy="410.856" r="16.303" style="fill:rgb(230,0,46);"/>
    </g>
    <g transform="matrix(0.885475,0,0,0.885475,1298.8,-142.402)">
        <circle cx="523.828" cy="400.572" r="28.62" style="fill:rgb(5,255,230);"/>
    </g>
    <g transform="matrix(0.885475,0,0,0.885475,1181.17,170.845)">
        <circle cx="523.828" cy="400.572" r="28.62" style="fill:rgb(208,235,0);"/>
    </g>
    <g transform="matrix(0.854952,0.230484,0.230484,-0.854952,-1208.14,215.576)">
        <circle cx="1684.66" cy="136.287" r="38.981" style="fill:rgb(5,255,230);"/>
    </g>
    <g transform="matrix(0.854952,0.230484,0.230484,-0.854952,-1114.25,529.204)">
        <circle cx="1662.78" cy="774.888" r="27.641" style="fill:rgb(98,98,101);"/>
    </g>
    <g transform="matrix(0.854952,0.230484,0.230484,-0.854952,-1494.8,281.377)">
        <circle cx="1734.93" cy="543.639" r="43.591" style="fill:rgb(230,0,46);"/>
    </g>
    <g transform="matrix(0.854952,0.230484,0.230484,-0.854952,-1494.8,281.377)">
        <circle cx="1832.67" cy="752.143" r="42.504" style="fill:rgb(253,0,236);"/>
    </g>
    <g transform="matrix(0.885475,0,0,0.885475,1288.38,-341.697)">
        <circle cx="403.06" cy="621.208" r="21.695"/>
    </g>
    <g transform="matrix(0.885475,0,0,0.885475,1393.55,-285.756)">
        <circle cx="143.946" cy="681.919" r="54.328" style="fill:rgb(253,0,236);"/>
    </g>
    <g transform="matrix(0.885475,0,0,0.885475,1298.8,-142.402)">
        <circle cx="596.638" cy="225.176" r="20.783"/>
    </g>
    <g transform="matrix(-0.607123,0.644567,0.644567,0.607123,858.696,-270.012)">
        <circle cx="345.997" cy="188.697" r="46.076" style="fill:rgb(1,255,52);"/>
    </g>
    <g transform="matrix(-0.607123,0.644567,0.644567,0.607123,655.758,-181.196)">
        <circle cx="191.944" cy="410.856" r="16.303" style="fill:rgb(230,0,46);"/>
    </g>
    <g transform="matrix(-0.607123,0.644567,0.644567,0.607123,858.696,-270.012)">
        <circle cx="523.828" cy="400.572" r="28.62" style="fill:rgb(5,255,230);"/>
    </g>
    <g transform="matrix(-0.607123,0.644567,0.644567,0.607123,840.147,-451.898)">
        <circle cx="403.06" cy="621.208" r="21.695"/>
    </g>
    <g transform="matrix(-0.607123,0.644567,0.644567,0.607123,858.696,-270.012)">
        <circle cx="596.638" cy="225.176" r="20.783"/>
    </g>
    <g transform="matrix(0.885475,0,0,0.885475,1667.08,-561.893)">
        <circle cx="162.361" cy="967.523" r="35.86" style="fill:rgb(98,98,101);"/>
    </g>
    <g transform="matrix(0.854952,0.230484,0.230484,-0.854952,-1032.6,155.81)">
        <circle cx="1411.66" cy="151.827" r="25.022" style="fill:rgb(253,0,236);"/>
    </g>
    <g transform="matrix(-0.848555,0,0,-0.848555,3245,624.115)">
        <circle cx="1684.66" cy="136.287" r="38.981" style="fill:rgb(5,255,230);"/>
    </g>
    <g transform="matrix(-0.819305,-0.220874,-0.220874,0.819305,1298.74,270.77)">
        <circle cx="1411.66" cy="151.827" r="25.022" style="fill:rgb(1,255,52);"/>
    </g>
    <g transform="matrix(0.854952,0.230484,0.230484,-0.854952,-1237.06,152.755)">
        <circle cx="1858.26" cy="235.298" r="19.684" style="fill:rgb(1,255,52);"/>
    </g>
    <g transform="matrix(0.854952,0.230484,0.230484,-0.854952,-1032.6,155.81)">
        <circle cx="1437.93" cy="365.657" r="25.605" style="fill:rgb(11,2,0);"/>
    </g>
    <g transform="matrix(0.854952,0.230484,0.230484,-0.854952,-1114.25,529.204)">
        <circle cx="1486.33" cy="688.13" r="20.652" style="fill:rgb(208,235,0);"/>
    </g>
    <g transform="matrix(0.885475,0,0,0.885475,1288.38,-341.697)">
        <circle cx="512.142" cy="828.901" r="27.505" style="fill:rgb(230,0,46);"/>
    </g>
    <g transform="matrix(0.885475,0,0,-0.885475,-754.219,546.772)">
        <circle cx="893.225" cy="67.547" r="16.603" style="fill:rgb(230,0,46);"/>
    </g>
    <g transform="matrix(0.854952,0.230484,0.230484,-0.854952,-846.668,318.377)">
        <circle cx="1136.47" cy="117.849" r="35.356" style="fill:rgb(208,235,0);"/>
    </g>
    <g transform="matrix(0.854952,0.230484,0.230484,-0.854952,-1114.25,529.204)">
        <circle cx="1533.29" cy="883.446" r="37.91" style="fill:rgb(5,255,230);"/>
    </g>
    <g transform="matrix(-0.885475,0,0,0.885475,1383.91,796.158)">
        <circle cx="154.309" cy="155.528" r="30.545" style="fill:rgb(98,98,101);"/>
    </g>
    <g transform="matrix(-0.885475,0,0,0.885475,1677.41,811.706)">
        <circle cx="345.997" cy="188.697" r="46.076" style="fill:rgb(1,255,52);"/>
    </g>
    <g transform="matrix(-0.854952,-0.230484,-0.230484,0.854952,2226.32,1274.27)">
        <circle cx="1684.66" cy="136.287" r="38.981" style="fill:rgb(5,255,230);"/>
    </g>
    <g transform="matrix(-0.885475,0,0,0.885475,1624.03,833.009)">
        <circle cx="596.638" cy="225.176" r="20.783"/>
    </g>
    <g transform="matrix(-0.885475,0,0,0.885475,1624.03,878.568)">
        <circle cx="601.48" cy="67.656" r="16.64" style="fill:rgb(5,255,230);"/>
    </g>
    <g transform="matrix(-0.885475,0,0,0.885475,1788.7,935.913)">
        <circle cx="893.225" cy="67.547" r="16.603" style="fill:rgb(230,0,46);"/>
    </g>
    <g transform="matrix(-0.854952,-0.230484,-0.230484,0.854952,1864.85,1171.47)">
        <circle cx="1136.47" cy="117.849" r="35.356" style="fill:rgb(208,235,0);"/>
    </g>
    <g transform="matrix(-0.885475,0,0,0.885475,444.406,493.037)">
        <circle cx="154.309" cy="155.528" r="30.545" style="fill:rgb(98,98,101);"/>
    </g>
    <g transform="matrix(-0.885475,0,0,0.885475,684.525,575.447)">
        <circle cx="345.997" cy="188.697" r="46.076" style="fill:rgb(1,255,52);"/>
    </g>
    <g transform="matrix(-0.885475,0,0,0.885475,480.729,488.618)">
        <circle cx="191.944" cy="410.856" r="16.303" style="fill:rgb(230,0,46);"/>
    </g>
    <g transform="matrix(-0.885475,0,0,0.885475,684.525,575.447)">
        <circle cx="523.828" cy="400.572" r="28.62" style="fill:rgb(5,255,230);"/>
    </g>
    <g transform="matrix(-0.854952,0.230484,-0.230484,-0.854952,3043.14,1072.15)">
        <circle cx="1662.78" cy="774.888" r="27.641" style="fill:rgb(98,98,101);"/>
    </g>
    <g transform="matrix(-0.854952,0.230484,-0.230484,-0.854952,3478.13,999.226)">
        <circle cx="1734.93" cy="543.639" r="43.591" style="fill:rgb(230,0,46);"/>
    </g>
    <g transform="matrix(-0.854952,-0.230484,-0.230484,0.854952,1573.48,905.349)">
        <circle cx="1734.93" cy="543.639" r="43.591" style="fill:rgb(230,0,46);"/>
    </g>
    <g transform="matrix(-0.885475,0,0,-0.885475,3379.72,1501.81)">
        <circle cx="1722.27" cy="973.496" r="18.178" style="fill:rgb(208,235,0);"/>
    </g>
    <g transform="matrix(-0.854952,0.230484,-0.230484,-0.854952,3545.7,999.226)">
        <circle cx="1832.67" cy="752.143" r="42.504" style="fill:rgb(253,0,236);"/>
    </g>
    <g transform="matrix(-0.885475,0,0,0.885475,694.95,376.152)">
        <circle cx="403.06" cy="621.208" r="21.695"/>
    </g>
    <g transform="matrix(-0.885475,0,0,0.885475,589.779,397.325)">
        <circle cx="143.946" cy="681.919" r="54.328" style="fill:rgb(253,0,236);"/>
    </g>
    <g transform="matrix(-0.885475,0,0,0.885475,684.525,575.447)">
        <circle cx="596.638" cy="225.176" r="20.783"/>
    </g>
    <g transform="matrix(-0.885475,0,0,0.885475,316.245,155.955)">
        <circle cx="162.361" cy="967.523" r="35.86" style="fill:rgb(98,98,101);"/>
    </g>
    <g transform="matrix(-0.854952,0.230484,-0.230484,-0.854952,2762.54,808.338)">
        <circle cx="1411.66" cy="151.827" r="25.022" style="fill:rgb(253,0,236);"/>
    </g>
    <g transform="matrix(0.819305,-0.220874,0.220874,0.819305,507.611,839.394)">
        <circle cx="1411.66" cy="151.827" r="25.022" style="fill:rgb(1,255,52);"/>
    </g>
    <g transform="matrix(-0.854952,0.230484,-0.230484,-0.854952,3220.39,870.604)">
        <circle cx="1858.26" cy="235.298" r="19.684" style="fill:rgb(1,255,52);"/>
    </g>
    <g transform="matrix(-0.854952,0.230484,-0.230484,-0.854952,3015.92,873.659)">
        <circle cx="1437.93" cy="365.657" r="25.605" style="fill:rgb(11,2,0);"/>
    </g>
    <g transform="matrix(-0.854952,0.230484,-0.230484,-0.854952,3097.58,1247.05)">
        <circle cx="1486.33" cy="688.13" r="20.652" style="fill:rgb(208,235,0);"/>
    </g>
    <g transform="matrix(-0.885475,0,0,0.885475,684.525,575.447)">
        <circle cx="601.48" cy="67.656" r="16.64" style="fill:rgb(5,255,230);"/>
    </g>
    <g transform="matrix(-0.885475,0,0,0.885475,849.2,632.791)">
        <circle cx="893.225" cy="67.547" r="16.603" style="fill:rgb(230,0,46);"/>
    </g>
    <g transform="matrix(-0.854952,0.230484,-0.230484,-0.854952,3097.58,1247.05)">
        <circle cx="1533.29" cy="883.446" r="37.91" style="fill:rgb(5,255,230);"/>
    </g>
</svg>
